<mxfile host="app.diagrams.net" agent="Mozilla/5.0 (Macintosh; Intel Mac OS X 10_15_7) AppleWebKit/537.36 (KHTML, like Gecko) Chrome/133.0.0.0 Safari/537.36" version="26.1.0">
  <diagram name="第 1 页" id="cXAoKrMgqpTc2uUaxv7u">
    <mxGraphModel dx="989" dy="536" grid="1" gridSize="10" guides="1" tooltips="1" connect="1" arrows="1" fold="1" page="1" pageScale="1" pageWidth="827" pageHeight="1169" math="0" shadow="0">
      <root>
        <mxCell id="0" />
        <mxCell id="1" parent="0" />
        <mxCell id="oLlinffS4dHNlLRgd4aY-5" value="" style="edgeStyle=orthogonalEdgeStyle;rounded=0;orthogonalLoop=1;jettySize=auto;html=1;" edge="1" parent="1" source="oLlinffS4dHNlLRgd4aY-1" target="oLlinffS4dHNlLRgd4aY-4">
          <mxGeometry relative="1" as="geometry" />
        </mxCell>
        <mxCell id="oLlinffS4dHNlLRgd4aY-1" value="开始" style="rounded=1;whiteSpace=wrap;html=1;fillColor=#008a00;fontColor=#ffffff;strokeColor=#005700;" vertex="1" parent="1">
          <mxGeometry x="70" y="320" width="120" height="60" as="geometry" />
        </mxCell>
        <mxCell id="oLlinffS4dHNlLRgd4aY-8" style="edgeStyle=orthogonalEdgeStyle;rounded=0;orthogonalLoop=1;jettySize=auto;html=1;entryX=0;entryY=0.5;entryDx=0;entryDy=0;" edge="1" parent="1" source="oLlinffS4dHNlLRgd4aY-4" target="oLlinffS4dHNlLRgd4aY-7">
          <mxGeometry relative="1" as="geometry" />
        </mxCell>
        <mxCell id="oLlinffS4dHNlLRgd4aY-10" value="否" style="edgeLabel;html=1;align=center;verticalAlign=middle;resizable=0;points=[];" vertex="1" connectable="0" parent="oLlinffS4dHNlLRgd4aY-8">
          <mxGeometry x="0.0098" y="2" relative="1" as="geometry">
            <mxPoint as="offset" />
          </mxGeometry>
        </mxCell>
        <mxCell id="oLlinffS4dHNlLRgd4aY-9" style="edgeStyle=orthogonalEdgeStyle;rounded=0;orthogonalLoop=1;jettySize=auto;html=1;entryX=0;entryY=0.5;entryDx=0;entryDy=0;" edge="1" parent="1" source="oLlinffS4dHNlLRgd4aY-4" target="oLlinffS4dHNlLRgd4aY-6">
          <mxGeometry relative="1" as="geometry" />
        </mxCell>
        <mxCell id="oLlinffS4dHNlLRgd4aY-11" value="是" style="edgeLabel;html=1;align=center;verticalAlign=middle;resizable=0;points=[];" vertex="1" connectable="0" parent="oLlinffS4dHNlLRgd4aY-9">
          <mxGeometry x="-0.1237" y="-2" relative="1" as="geometry">
            <mxPoint as="offset" />
          </mxGeometry>
        </mxCell>
        <mxCell id="oLlinffS4dHNlLRgd4aY-4" value="第一名是价格是否免审" style="rhombus;whiteSpace=wrap;html=1;fillColor=#d80073;fontColor=#ffffff;strokeColor=#A50040;" vertex="1" parent="1">
          <mxGeometry x="250" y="300" width="100" height="100" as="geometry" />
        </mxCell>
        <mxCell id="oLlinffS4dHNlLRgd4aY-6" value="直接进入到展示逻辑" style="rounded=1;whiteSpace=wrap;html=1;fillColor=#e51400;fontColor=#ffffff;strokeColor=#B20000;" vertex="1" parent="1">
          <mxGeometry x="414" y="190" width="120" height="60" as="geometry" />
        </mxCell>
        <mxCell id="oLlinffS4dHNlLRgd4aY-13" value="" style="edgeStyle=orthogonalEdgeStyle;rounded=0;orthogonalLoop=1;jettySize=auto;html=1;" edge="1" parent="1" source="oLlinffS4dHNlLRgd4aY-7" target="oLlinffS4dHNlLRgd4aY-12">
          <mxGeometry relative="1" as="geometry" />
        </mxCell>
        <mxCell id="oLlinffS4dHNlLRgd4aY-7" value="送审素材" style="rounded=0;whiteSpace=wrap;html=1;fillColor=#1ba1e2;fontColor=#ffffff;strokeColor=#006EAF;" vertex="1" parent="1">
          <mxGeometry x="414" y="460" width="120" height="60" as="geometry" />
        </mxCell>
        <mxCell id="oLlinffS4dHNlLRgd4aY-18" value="" style="edgeStyle=orthogonalEdgeStyle;rounded=0;orthogonalLoop=1;jettySize=auto;html=1;entryX=0.5;entryY=1;entryDx=0;entryDy=0;" edge="1" parent="1" source="oLlinffS4dHNlLRgd4aY-12" target="oLlinffS4dHNlLRgd4aY-23">
          <mxGeometry relative="1" as="geometry">
            <mxPoint x="680" y="380" as="targetPoint" />
          </mxGeometry>
        </mxCell>
        <mxCell id="oLlinffS4dHNlLRgd4aY-22" value="是" style="edgeLabel;html=1;align=center;verticalAlign=middle;resizable=0;points=[];" vertex="1" connectable="0" parent="oLlinffS4dHNlLRgd4aY-18">
          <mxGeometry x="-0.0667" y="1" relative="1" as="geometry">
            <mxPoint as="offset" />
          </mxGeometry>
        </mxCell>
        <mxCell id="oLlinffS4dHNlLRgd4aY-20" value="" style="edgeStyle=orthogonalEdgeStyle;rounded=0;orthogonalLoop=1;jettySize=auto;html=1;" edge="1" parent="1" source="oLlinffS4dHNlLRgd4aY-12" target="oLlinffS4dHNlLRgd4aY-19">
          <mxGeometry relative="1" as="geometry" />
        </mxCell>
        <mxCell id="oLlinffS4dHNlLRgd4aY-21" value="否" style="edgeLabel;html=1;align=center;verticalAlign=middle;resizable=0;points=[];" vertex="1" connectable="0" parent="oLlinffS4dHNlLRgd4aY-20">
          <mxGeometry x="-0.4" y="-2" relative="1" as="geometry">
            <mxPoint as="offset" />
          </mxGeometry>
        </mxCell>
        <mxCell id="oLlinffS4dHNlLRgd4aY-12" value="是否响应成功" style="rhombus;whiteSpace=wrap;html=1;rounded=0;fillColor=#d80073;fontColor=#ffffff;strokeColor=#A50040;" vertex="1" parent="1">
          <mxGeometry x="640" y="450" width="80" height="80" as="geometry" />
        </mxCell>
        <mxCell id="oLlinffS4dHNlLRgd4aY-16" value="" style="edgeStyle=orthogonalEdgeStyle;rounded=0;orthogonalLoop=1;jettySize=auto;html=1;" edge="1" parent="1" source="oLlinffS4dHNlLRgd4aY-15" target="oLlinffS4dHNlLRgd4aY-7">
          <mxGeometry relative="1" as="geometry" />
        </mxCell>
        <mxCell id="oLlinffS4dHNlLRgd4aY-15" value="&lt;font style=&quot;color: rgb(255, 255, 255);&quot;&gt;&lt;span style=&quot;background-color: transparent;&quot;&gt;1、一价素材&lt;/span&gt;&lt;br&gt;&lt;span style=&quot;background-color: transparent;&quot;&gt;2、二价素材&lt;/span&gt;&lt;br&gt;&lt;/font&gt;&lt;div&gt;&lt;font style=&quot;color: rgb(255, 255, 255);&quot;&gt;3、免审打底素材&lt;/font&gt;&lt;/div&gt;" style="shape=document;whiteSpace=wrap;html=1;boundedLbl=1;align=left;fillColor=#a0522d;fontColor=#ffffff;strokeColor=#6D1F00;" vertex="1" parent="1">
          <mxGeometry x="414" y="320" width="120" height="80" as="geometry" />
        </mxCell>
        <mxCell id="oLlinffS4dHNlLRgd4aY-30" style="edgeStyle=orthogonalEdgeStyle;rounded=0;orthogonalLoop=1;jettySize=auto;html=1;entryX=0.5;entryY=0;entryDx=0;entryDy=0;" edge="1" parent="1" source="oLlinffS4dHNlLRgd4aY-19" target="oLlinffS4dHNlLRgd4aY-6">
          <mxGeometry relative="1" as="geometry">
            <Array as="points">
              <mxPoint x="990" y="490" />
              <mxPoint x="990" y="170" />
              <mxPoint x="474" y="170" />
            </Array>
          </mxGeometry>
        </mxCell>
        <mxCell id="oLlinffS4dHNlLRgd4aY-19" value="客户端遍历可以用广告，获取免审广告中最优的一条去展示" style="whiteSpace=wrap;html=1;rounded=0;fillColor=#1ba1e2;fontColor=#ffffff;strokeColor=#006EAF;" vertex="1" parent="1">
          <mxGeometry x="780" y="460" width="120" height="60" as="geometry" />
        </mxCell>
        <mxCell id="oLlinffS4dHNlLRgd4aY-25" value="是" style="edgeStyle=orthogonalEdgeStyle;rounded=0;orthogonalLoop=1;jettySize=auto;html=1;" edge="1" parent="1" source="oLlinffS4dHNlLRgd4aY-23" target="oLlinffS4dHNlLRgd4aY-24">
          <mxGeometry relative="1" as="geometry" />
        </mxCell>
        <mxCell id="oLlinffS4dHNlLRgd4aY-27" value="" style="edgeStyle=orthogonalEdgeStyle;rounded=0;orthogonalLoop=1;jettySize=auto;html=1;" edge="1" parent="1" source="oLlinffS4dHNlLRgd4aY-23" target="oLlinffS4dHNlLRgd4aY-26">
          <mxGeometry relative="1" as="geometry" />
        </mxCell>
        <mxCell id="oLlinffS4dHNlLRgd4aY-28" value="否" style="edgeLabel;html=1;align=center;verticalAlign=middle;resizable=0;points=[];" vertex="1" connectable="0" parent="oLlinffS4dHNlLRgd4aY-27">
          <mxGeometry x="-0.4" y="-1" relative="1" as="geometry">
            <mxPoint as="offset" />
          </mxGeometry>
        </mxCell>
        <mxCell id="oLlinffS4dHNlLRgd4aY-23" value="返回状态是否为拒审" style="rhombus;whiteSpace=wrap;html=1;fillColor=#d80073;fontColor=#ffffff;strokeColor=#A50040;" vertex="1" parent="1">
          <mxGeometry x="640" y="310" width="80" height="80" as="geometry" />
        </mxCell>
        <mxCell id="oLlinffS4dHNlLRgd4aY-24" value="无可展示的广告" style="whiteSpace=wrap;html=1;fillColor=#e51400;fontColor=#ffffff;strokeColor=#B20000;rounded=1;" vertex="1" parent="1">
          <mxGeometry x="780" y="320" width="120" height="60" as="geometry" />
        </mxCell>
        <mxCell id="oLlinffS4dHNlLRgd4aY-29" value="" style="edgeStyle=orthogonalEdgeStyle;rounded=0;orthogonalLoop=1;jettySize=auto;html=1;" edge="1" parent="1" source="oLlinffS4dHNlLRgd4aY-26" target="oLlinffS4dHNlLRgd4aY-6">
          <mxGeometry relative="1" as="geometry" />
        </mxCell>
        <mxCell id="oLlinffS4dHNlLRgd4aY-26" value="服务端返回审核通过的广告" style="rounded=0;whiteSpace=wrap;html=1;fillColor=#1ba1e2;fontColor=#ffffff;strokeColor=#006EAF;" vertex="1" parent="1">
          <mxGeometry x="620" y="190" width="120" height="60" as="geometry" />
        </mxCell>
      </root>
    </mxGraphModel>
  </diagram>
</mxfile>
